<svg id="Layer_1" data-name="Layer 1" xmlns="http://www.w3.org/2000/svg" viewBox="0 0 691.65 170.08"><defs><style>.cls-1{fill:#e01f27;}</style></defs><title>Kangasala_logo_RGB</title><path d="M148.42,42.58a36.06,36.06,0,1,0,0,59.42v6.35h17.23V36.23H148.42Zm0,31.49a20.48,20.48,0,1,1,0-3.56Z"/><path d="M399,42.58A36.06,36.06,0,1,0,399,102v6.35h17.23V36.23H399Zm0,31.49a20.48,20.48,0,1,1,0-3.56Z"/><path d="M545.79,42.58a36.06,36.06,0,1,0,0,59.42v6.35H563V36.23H545.79Zm0,31.49a20.48,20.48,0,1,1,0-3.56Z"/><path d="M660.25,36.23v6.35a36.06,36.06,0,1,0,0,59.42v6.35h17.23V36.23Zm0,37.84a20.48,20.48,0,1,1,0-3.56Z"/><rect x="575.63" y="14.17" width="17.23" height="94.17"/><path d="M215.89,36.23a35.88,35.88,0,0,0-20.41,6.35V36.23H178.25v72.12h17.23V70.51a20.49,20.49,0,0,1,40.91,1.78v36.06H252v-38h-.05A36.11,36.11,0,0,0,215.89,36.23Z"/><polygon points="94.49 14.17 70.94 14.17 33.01 53.95 33.01 14.17 14.17 14.17 14.17 108.35 33.01 108.35 33.01 66.34 73.17 108.35 98.71 108.35 50.37 59.03 94.49 14.17"/><path class="cls-1" d="M297.25,36.19a36.06,36.06,0,1,0,36.07,36.05A36.1,36.1,0,0,0,297.25,36.19Zm0,56.54a20.49,20.49,0,1,1,20.49-20.49A20.51,20.51,0,0,1,297.25,92.73Z"/><path class="cls-1" d="M317.74,119.85a20.49,20.49,0,0,1-41,0v-2.54H261.18v2.54a36.07,36.07,0,0,0,72.14,0v-2.54H317.74Z"/><path class="cls-1" d="M325.32,17.6a9.32,9.32,0,1,0,9.32,9.32A9.33,9.33,0,0,0,325.32,17.6Z"/><path d="M458.41,64.37q-6.92-2-9.24-3.66a5.32,5.32,0,0,1-2.33-4.58q0-5.19,9.71-5.19a41.06,41.06,0,0,1,10.3,1.4,37.55,37.55,0,0,1,9.51,3.79l2.13-14.62a36,36,0,0,0-10.24-3.86,55,55,0,0,0-12.5-1.46q-12.76,0-20.07,5.58t-7.32,15.29q0,8.64,5.12,13.75t17.08,8.44q7.59,2.13,10,3.72a5.26,5.26,0,0,1,2.39,4.66q0,5.72-11.3,5.71a42.43,42.43,0,0,1-22.2-6.78l-2.27,15a29.2,29.2,0,0,0,10.64,4.72,57.89,57.89,0,0,0,14.63,1.79q13.69,0,21.47-5.58a17.92,17.92,0,0,0,7.78-15.42q0-8.9-5.25-14T458.41,64.37Z"/></svg>