<?xml version="1.0" standalone="yes"?>
<svg xmlns="http://www.w3.org/2000/svg" width="349" height="92">
<path style="fill:#ffffff; stroke:none;" d="M0 0L0 92L271 92L271 91C263.891 87.6375 254.115 82.4727 249.453 75.9606C246.879 72.365 248.954 66.6662 253.868 66.4614C256.837 66.3377 258.424 70.9023 260.224 72.6713C263.672 76.0601 268.313 78.1641 273 79L274 51C266.247 52.2091 261.536 57.9521 254 53L253 53C243.61 59.7545 234.959 51.7308 226 48C223.38 52.809 219.432 54.4268 216.085 48.9444C209.437 38.0556 207.213 4.86977 224 3L224 14C226.75 13.2139 229.285 11.9818 232 11.1049C251.982 4.65078 232.769 33.2602 233.828 37.7901C235.117 43.3062 247.236 46.8685 252 48C252.066 40.1292 253.903 34.4117 262 32L262 46L266 46C266.058 39.0501 272.417 22.9721 279.633 35.0201C287.197 47.6503 285.407 79.2545 279 92L349 92L349 0L40 0C40 10.4625 38.892 21.6168 40.1852 32C40.8519 37.3529 44.7689 42.4834 44.1273 48C43.6613 52.0068 38.5273 57.7141 34.7022 53.6628C31.8606 50.6532 30.9048 44.9108 30 41C16.947 41.2795 17.6893 55.6204 6 56C6 43.7201 1.84005 22.4688 6.60339 11.1852C8.34218 7.06626 15.1398 4.47549 16.6821 10.0594C18.5577 16.8497 17 25.9638 17 33C38.2903 32.9836 28.3601 13.3101 34 0L0 0z"/>
<path style="fill:#00928f; stroke:none;" d="M16 33L16 6L6.60339 10.3295L6 24L6 56C17.1156 55.8683 15.2739 43.6449 24.9853 41.6312C34.0274 39.7563 29.7029 56.3916 38.0401 55.534C42.0994 55.1164 44.6831 50.7572 44.4267 47C44.0502 41.4843 40.8493 36.4825 40.1844 31C38.9624 20.9236 40 10.1489 40 0C27.5488 0.405479 33.3991 14.499 31.6559 23C29.9614 31.2629 23.2821 32.9944 16 33M61 10L60 10C57.5346 2.98313 46.1754 2.31303 45.6582 11.0139C45.0575 21.1188 57.5353 19.6638 61 13C62.8896 14.1886 64.8399 15.7495 67.0046 16.3997C82.7587 21.1313 75.8172 -7.22536 63.4344 5.3696C62.0648 6.76267 61.6209 8.2165 61 10M330 12L329 12C326.789 4.58327 314.524 0.318398 313.917 11.0147C313.349 21.0119 325.555 19.7179 329 13L331 13C334.707 18.7037 346.579 17.1574 344.882 9C342.577 -2.07803 330.301 2.80087 330 12M226 48C233.245 52.2328 245.54 60.6176 253 53L254 53C260.376 58.9732 267.049 52.6664 274 51L273 80C266.838 76.4001 252.884 60.057 248.072 70.0941C246.287 73.8174 249.427 77.2466 252.044 79.5355C257.086 83.9444 273.828 97.472 280.258 89.6821C282.826 86.5698 282.791 79.8786 282.961 76C283.473 64.3115 286.536 43.0099 279.03 33.1489C270.9 22.4675 266.016 40.2207 266 46L262 46L262 32C253.178 33.6025 252.022 40.052 252 48C247.38 46.4267 236.011 43.0201 234.446 37.7901C232.845 32.443 252.985 3.81724 231.002 11.1042C228.613 11.8961 226.327 13.0457 224 14L224 3C207.252 3.91698 208.899 39.2664 216.089 49.8519C219.412 54.7445 224.296 52.6338 226 48z"/>
<path style="fill:#ffffff; stroke:none;" d="M332 4L333 5L332 4M16 7L16 33L17 33L16 7M329 8L330 9L329 8M313 9L314 10L313 9M345 9L346 10L345 9z"/>
<path style="fill:#ffffff; stroke:none;" d="M61.3333 10.6667L61.6667 11.3333L61.3333 10.6667z"/>
<path style="fill:#ffffff; stroke:none;" d="M313 11L314 12L313 11M61 13L62 14L61 13M329 13L330 14L329 13M64 15L65 16L64 15M65 16L66 17L65 16M333 16L334 17L333 16M316 17L317 18L316 17M325 17L326 18L325 17M49 18L50 19L49 18M55 18L56 19L55 18M63 19L64 20L63 19z"/>
<path style="fill:#00928f; stroke:none;" d="M81 53C86.8718 61.0405 92.2259 48.7493 94 44L95 44L98 54C104.122 52.4079 109.913 47.4812 113 42L115 42C116.801 48.0641 121.042 54.2818 128 53C128.424 71.0535 147.943 67.5441 158 59C160.661 66.6378 168.869 67.1665 176 65.4676C187.632 62.6964 196.295 53.5457 198 42L199 42C200.09 46.7125 201.396 54.0968 205.394 57.2569C208.426 59.6542 214.045 58.9856 215.292 54.8912C216.732 50.1637 207.67 30.1572 202.802 28.7924C199.222 27.7889 194.872 32.3426 192 34L192 30C177.767 30.4632 187.043 40.9889 186.677 48.9568C186.45 53.9171 177.481 58.3312 173.005 57.2114C169.942 56.445 167.376 53.252 169.466 50.3256C173.187 45.1153 190.369 34.6175 174.985 28.7461C156.312 21.6201 161.454 56.1759 146 57.3225C143.289 57.5237 139.137 55.4568 139.631 52.169C140.693 45.1032 153.042 45.229 151.752 36.0008C149.399 19.1591 130.787 33.0949 129 43C121.29 35.3043 123.726 18.733 110.025 31.9907C108.326 33.6348 106.672 35.3284 105 37C103.352 26.0043 98.9158 26.1837 90 30C88.5024 25.0668 80.4977 22.8178 78.7369 29.189C77.8391 32.4376 81.0042 35.1746 81.9769 38C83.0352 41.0744 82.0657 44.8018 82 48C74.9476 44.896 72.2173 40.5299 71.2863 33C70.7932 29.012 71.8967 22.6096 67.7215 20.2184C54.9473 12.9023 39.6574 44.272 47.6034 53.6821C53.2886 60.4148 59.283 49.7907 65 51.152C72.0158 52.8225 73.6777 58.2614 81 53z"/>
<path style="fill:#ffffff; stroke:none;" d="M224 34C228.201 30.3984 230.438 25.4853 231 20C224.629 23.0064 224.005 27.4934 224 34z"/>
<path style="fill:#00928f; stroke:none;" d="M312 31C310.075 37.0215 307.478 43.8457 310.573 49.9568C316.877 62.4081 332.92 53.9623 337.597 44.9992C346.032 28.8361 328.691 15.7869 315 27C312.66 18.9125 305.153 20.0741 299 23.4421C289.889 28.4296 283.087 31.9047 284.92 43C285.523 46.6508 285.9 57.4805 292.004 54.7623C302.004 50.3094 295.891 37.0374 302.589 31.7323C304.723 30.042 309.317 31.6246 312 31z"/>
<path style="fill:#ffffff; stroke:none;" d="M297 24L298 25L297 24M139 28L140 29L139 28M168 28L169 29L168 28M175 28L176 29L175 28z"/>
<path style="fill:#ffffff; stroke:none;" d="M337 28L338 29L337 28z"/>
<path style="fill:#ffffff; stroke:none;" d="M313 29L314 30L313 29M197 30L198 31L197 30z"/>
<path style="fill:#ffffff; stroke:none;" d="M312 30L313 31L312 30z"/>
<path style="fill:#ffffff; stroke:none;" d="M338 30L339 31L338 30M301 31L302 32L301 31z"/>
<path style="fill:#ffffff; stroke:none;" d="M59 32L56 45C59.5261 41.6433 60.914 36.6043 59 32M322 33C321.181 34.7014 320.457 36.123 320.208 38.0247C318.26 52.8549 338.866 38.9641 322 33z"/>
<path style="fill:#ffffff; stroke:none;" d="M161 34L162 35L161 34M326 34L327 35L326 34M300 36L301 37L300 36M42 39L43 40L42 39z"/>
<path style="fill:#ffffff; stroke:none;" d="M140 40L141 41L140 40z"/>
<path style="fill:#ffffff; stroke:none;" d="M43 42L44 43L43 42M113 42L114 43L113 42M198 42L199 43L198 42M30 43L31 44L30 43M282 43L283 44L282 43M57 44L58 45L57 44M115 44L116 45L115 44M109 46L110 47L109 46z"/>
<path style="fill:#ffffff; stroke:none;" d="M186 46L187 47L186 46z"/>
<path style="fill:#ffffff; stroke:none;" d="M213 47L214 48L213 47M169 49L170 50L169 49M91 51L92 52L91 51M286 51L287 52L286 51M14 53L15 54L14 53M221 53L222 54L221 53M266 53L267 54L266 53M88 54L89 55L88 54M238 54L239 55L238 54M328 54L329 55L328 54M273 77L274 78L273 77M272 79L273 80L272 79M267 89L268 90L267 89z"/>
</svg>
