<svg version="1.1" id="Layer_1" xmlns="http://www.w3.org/2000/svg" xmlns:xlink="http://www.w3.org/1999/xlink" x="0px" y="0px"
	 width="100%" viewBox="0 0 827 245" enable-background="new 0 0 827 245" xml:space="preserve">
<path fill="#FEFEFF" opacity="1.000000" stroke="none" 
	d="
M609.000000,246.000000 
	C406.047180,246.000000 203.594391,246.000000 1.070790,246.000000 
	C1.070790,164.399612 1.070790,82.799149 1.070790,1.099339 
	C276.666656,1.099339 552.333313,1.099339 827.974304,1.099339 
	C827.974304,82.738983 827.974304,164.369492 827.974304,246.000000 
	C755.132385,246.000000 682.316223,246.000000 609.000000,246.000000 
M124.604187,191.632736 
	C125.410233,190.179153 126.351227,188.783295 127.001579,187.263107 
	C133.881027,171.182144 146.749146,164.158264 163.476746,161.799362 
	C173.114532,160.440277 182.815918,158.129318 191.922638,154.730255 
	C206.212677,149.396515 212.803513,134.969177 209.005966,119.335838 
	C207.546860,121.503914 206.309464,123.381958 205.032837,125.232956 
	C197.693008,135.875214 188.386536,143.591599 175.312897,146.328293 
	C166.375687,148.199097 157.494110,150.473740 148.768707,153.156616 
	C144.765564,154.387527 140.457764,156.292374 137.569656,159.175400 
	C128.600540,168.128754 124.940948,179.594406 123.877602,192.146408 
	C123.877602,192.146408 123.789162,192.323883 123.789162,192.323883 
	C123.789162,192.323883 124.025139,191.987946 124.604187,191.632736 
M574.074707,126.386032 
	C571.796631,121.035622 569.545532,115.673508 567.232422,110.338303 
	C565.189148,105.625488 564.276184,99.074913 560.666992,96.757164 
	C556.843750,94.302002 550.414734,96.054276 545.149658,95.640442 
	C541.810120,95.377953 540.222107,96.513397 538.895935,99.682816 
	C527.094482,127.886581 515.083923,156.002853 503.127533,184.141724 
	C502.434143,185.773529 501.675171,187.377441 500.676788,189.593445 
	C489.251465,162.685303 478.169678,136.529785 467.029175,110.399300 
	C464.957031,105.539093 463.854797,98.914680 460.112549,96.494629 
	C456.321259,94.042824 449.801025,95.971016 444.497711,95.637344 
	C441.291565,95.435623 439.929321,96.686592 438.719788,99.589409 
	C429.580444,121.523590 420.230286,143.369919 410.947449,165.244293 
	C406.627655,175.423569 402.311310,185.604309 397.719696,196.429657 
	C404.900360,196.429657 411.356354,196.600998 417.788391,196.284424 
	C419.067596,196.221451 420.788757,194.529404 421.393311,193.179718 
	C424.223145,186.862366 426.733673,180.402008 429.353821,174.003540 
	C442.595459,174.003540 455.419403,173.891571 468.235870,174.150299 
	C469.776642,174.181381 471.958191,175.896774 472.671906,177.390808 
	C475.102081,182.478119 477.138031,187.768799 479.058990,193.077927 
	C480.005585,195.694122 481.417816,196.545532 484.198669,196.502075 
	C495.007019,196.333221 505.822052,196.304749 516.628967,196.513382 
	C519.706482,196.572769 521.023010,195.398636 522.005432,192.706665 
	C523.941162,187.402557 526.039307,182.144104 528.397217,177.017136 
	C528.992920,175.721878 530.808594,174.155106 532.086487,174.134598 
	C545.232239,173.923645 558.382629,174.005173 571.639526,174.005173 
	C574.274170,180.513016 576.765808,186.840988 579.428101,193.096344 
	C579.954712,194.333771 581.102966,196.200562 582.022095,196.234863 
	C589.063843,196.497849 596.119812,196.379288 603.798462,196.379288 
	C593.716858,172.650330 584.039734,149.873581 574.074707,126.386032 
M253.320663,113.158913 
	C250.163574,108.266449 247.075607,103.326889 243.797379,98.516991 
	C243.044647,97.412560 241.660141,96.041245 240.528503,96.005905 
	C233.264114,95.779053 225.989166,95.890076 218.583923,95.890076 
	C218.583923,129.513107 218.583923,162.562775 218.583923,195.699951 
	C225.796097,195.699951 232.702286,195.699951 240.229340,195.699951 
	C240.229340,174.519440 240.229340,153.608536 240.229340,131.629547 
	C250.243774,146.187805 259.551331,159.718475 269.243042,173.807556 
	C279.056244,159.539200 288.472687,145.847763 297.889099,132.156326 
	C298.254456,132.298691 298.619812,132.441055 298.985168,132.583420 
	C298.985168,153.605606 298.985168,174.627792 298.985168,195.563278 
	C306.520660,195.563278 313.555023,195.563278 320.541138,195.563278 
	C320.541138,162.229324 320.541138,129.309464 320.541138,95.879021 
	C314.184418,95.879021 308.051422,96.155075 301.958649,95.779213 
	C298.080078,95.539940 296.020630,96.984322 294.018616,100.171646 
	C286.093536,112.788948 277.861664,125.213524 269.514648,138.061890 
	C264.059875,129.643921 258.906830,121.691589 253.320663,113.158913 
M736.686951,97.425987 
	C735.277771,96.852272 733.891174,95.861389 732.455200,95.783775 
	C728.301880,95.559303 724.113220,95.922661 719.968201,95.631355 
	C716.640869,95.397522 715.066040,96.509727 713.740479,99.686432 
	C702.221130,127.292435 690.478210,154.805084 678.801453,182.345398 
	C676.890747,186.851837 674.979004,191.357834 672.827759,196.429886 
	C679.062134,196.429886 684.541443,196.183945 689.985901,196.513000 
	C693.867432,196.747559 695.957092,195.741531 697.256226,191.755234 
	C699.237671,185.675797 702.037048,179.862961 704.461365,174.003983 
	C717.778564,174.003983 730.605164,173.910294 743.426270,174.134125 
	C744.870911,174.159348 746.957581,175.662857 747.592896,177.020660 
	C750.054504,182.281372 751.978394,187.790924 754.271484,193.135330 
	C754.798706,194.364120 755.963867,196.201294 756.891907,196.235657 
	C763.935730,196.496399 770.993591,196.378311 778.613708,196.378311 
	C764.483582,163.053787 750.734253,130.627106 736.686951,97.425987 
M333.156036,108.518723 
	C333.156036,137.628357 333.156036,166.737991 333.156036,196.141785 
	C340.608459,196.141785 347.693756,196.141785 355.372345,196.141785 
	C355.372345,186.236176 355.372345,176.512634 355.372345,166.698563 
	C356.932404,166.582764 357.913757,166.495239 358.896881,166.439224 
	C367.516541,165.948227 376.328339,166.434387 384.717285,164.777878 
	C403.397186,161.089233 413.055634,147.352509 412.054962,127.715851 
	C411.205658,111.049133 399.092072,98.319473 381.000854,97.051544 
	C365.433319,95.960495 349.747620,96.553696 334.113892,96.434242 
	C333.869781,96.432373 333.622498,96.841133 333.156067,97.253166 
	C333.156067,100.549370 333.156067,104.039169 333.156036,108.518723 
M71.635719,170.418427 
	C71.635719,145.673737 71.635719,120.929047 71.635719,96.049507 
	C64.021217,96.049507 57.060699,96.049507 49.890202,96.049507 
	C49.890202,129.400330 49.890202,162.581085 49.890202,195.735168 
	C70.453201,195.735168 90.688293,195.735168 111.059319,195.735168 
	C113.420303,189.170044 115.710320,182.802277 118.221375,175.819855 
	C102.441559,175.819855 87.214622,175.819855 71.846939,175.819855 
	C71.761124,174.023087 71.698486,172.711594 71.635719,170.418427 
M608.208435,129.499954 
	C608.208435,151.614075 608.208435,173.728195 608.208435,195.638016 
	C608.900085,195.995789 609.191040,196.277542 609.483032,196.278625 
	C627.463379,196.345230 645.443848,196.411270 663.424072,196.371094 
	C664.361206,196.369003 665.805359,195.675247 666.151611,194.912354 
	C668.872437,188.917343 671.382996,182.826889 674.232849,176.119690 
	C659.187500,176.119690 644.948120,176.119690 630.133911,176.119690 
	C630.133911,149.329727 630.133911,122.963997 630.133911,96.631485 
	C622.503113,96.631485 615.465271,96.631485 608.208435,96.631485 
	C608.208435,107.535225 608.208435,118.017586 608.208435,129.499954 
M160.635010,90.173355 
	C181.490540,84.199104 190.050385,71.500122 186.139923,51.503185 
	C184.929367,53.324558 183.955765,54.757393 183.014282,56.211018 
	C175.375427,68.005272 165.295517,76.244492 151.126099,79.090134 
	C142.830292,80.756187 134.579361,82.822044 126.504166,85.337120 
	C122.346672,86.631989 117.842613,88.522614 114.842316,91.501076 
	C106.165596,100.114639 104.014175,111.506409 103.231415,123.246521 
	C104.772476,121.105751 106.045601,118.842865 106.981094,116.448090 
	C111.652550,104.489693 120.526688,98.043510 133.003799,95.856468 
	C141.996964,94.280098 150.908340,92.237061 160.635010,90.173355 
M188.082947,99.588478 
	C182.222855,105.835495 175.068832,109.757935 166.756287,111.769173 
	C157.235733,114.072693 147.638824,116.181358 138.320709,119.146553 
	C134.085190,120.494370 129.610733,122.953941 126.688812,126.206543 
	C118.940125,134.832169 116.972221,145.822296 116.238464,157.077545 
	C117.101822,156.259811 117.667984,155.311859 118.006142,154.288544 
	C123.203987,138.559341 134.236389,130.150085 150.510574,128.225281 
	C153.145981,127.913597 155.763321,127.413040 158.370346,126.904076 
	C168.637665,124.899643 179.056183,123.316391 188.099274,117.489021 
	C197.684219,111.312477 203.018082,95.546722 198.988144,85.902260 
	C195.553268,90.254349 192.069916,94.667862 188.082947,99.588478 
M567.140503,90.652023 
	C568.916321,90.416641 571.465881,91.559425 571.447998,88.169014 
	C571.425354,83.875343 571.442505,79.581459 571.442505,75.253220 
	C565.619995,75.253220 560.351685,75.253220 555.017700,75.253220 
	C555.017700,80.425415 555.017700,85.355438 555.017700,90.652328 
	C558.948303,90.652328 562.589111,90.652328 567.140503,90.652023 
M728.855042,86.320396 
	C728.981384,87.716110 729.107788,89.111832 729.222839,90.382828 
	C734.877075,90.382828 739.969116,90.382828 745.300537,90.382828 
	C745.300537,85.185432 745.300537,80.281128 745.300537,75.251976 
	C739.766663,75.251976 734.519470,75.251976 728.854980,75.251976 
	C728.854980,78.780617 728.854980,82.071823 728.855042,86.320396 
M704.328979,87.127686 
	C705.074158,88.302933 705.753235,90.438324 706.575439,90.494919 
	C711.303101,90.820404 716.064697,90.653427 720.821655,90.653427 
	C720.821655,85.142662 720.821655,80.253906 720.821655,75.219803 
	C715.320862,75.219803 710.100342,75.219803 704.328796,75.219803 
	C704.328796,79.021187 704.328796,82.618782 704.328979,87.127686 
M540.413452,90.668762 
	C542.516418,90.668762 544.619324,90.668762 546.747314,90.668762 
	C546.747314,85.147720 546.747314,80.250458 546.747314,75.406219 
	C541.117676,75.406219 535.770081,75.406219 530.428467,75.406219 
	C530.428467,80.559181 530.428467,85.309784 530.428467,90.669357 
	C533.583191,90.669357 536.522888,90.669357 540.413452,90.668762 
M454.436584,76.944649 
	C454.436584,81.383324 454.436584,85.822006 454.436584,90.362122 
	C460.332214,90.362122 465.575165,90.362122 470.831848,90.362122 
	C470.831848,85.131393 470.831848,80.223976 470.831848,74.516327 
	C465.161865,75.047035 459.860168,75.543259 454.436584,76.944649 
M441.379456,75.008408 
	C437.637939,75.008408 433.896423,75.008408 430.216492,75.008408 
	C430.216492,80.551651 430.216492,85.331902 430.216492,90.333794 
	C435.808319,90.333794 441.188904,90.333794 446.585693,90.333794 
	C446.585693,85.100052 446.585693,80.207474 446.585693,75.008614 
	C444.951019,75.008614 443.643951,75.008614 441.379456,75.008408 
M102.490921,125.458282 
	C102.490921,125.458282 102.472130,125.513176 102.490921,125.458282 
z"/>
<path fill="#104395" opacity="1.000000" stroke="none" 
	d="
M574.218689,126.741425 
	C584.039734,149.873581 593.716858,172.650330 603.798462,196.379288 
	C596.119812,196.379288 589.063843,196.497849 582.022095,196.234863 
	C581.102966,196.200562 579.954712,194.333771 579.428101,193.096344 
	C576.765808,186.840988 574.274170,180.513016 571.639526,174.005173 
	C558.382629,174.005173 545.232239,173.923645 532.086487,174.134598 
	C530.808594,174.155106 528.992920,175.721878 528.397217,177.017136 
	C526.039307,182.144104 523.941162,187.402557 522.005432,192.706665 
	C521.023010,195.398636 519.706482,196.572769 516.628967,196.513382 
	C505.822052,196.304749 495.007019,196.333221 484.198669,196.502075 
	C481.417816,196.545532 480.005585,195.694122 479.058990,193.077927 
	C477.138031,187.768799 475.102081,182.478119 472.671906,177.390808 
	C471.958191,175.896774 469.776642,174.181381 468.235870,174.150299 
	C455.419403,173.891571 442.595459,174.003540 429.353821,174.003540 
	C426.733673,180.402008 424.223145,186.862366 421.393311,193.179718 
	C420.788757,194.529404 419.067596,196.221451 417.788391,196.284424 
	C411.356354,196.600998 404.900360,196.429657 397.719696,196.429657 
	C402.311310,185.604309 406.627655,175.423569 410.947449,165.244293 
	C420.230286,143.369919 429.580444,121.523590 438.719788,99.589409 
	C439.929321,96.686592 441.291565,95.435623 444.497711,95.637344 
	C449.801025,95.971016 456.321259,94.042824 460.112549,96.494629 
	C463.854797,98.914680 464.957031,105.539093 467.029175,110.399300 
	C478.169678,136.529785 489.251465,162.685303 500.676788,189.593445 
	C501.675171,187.377441 502.434143,185.773529 503.127533,184.141724 
	C515.083923,156.002853 527.094482,127.886581 538.895935,99.682816 
	C540.222107,96.513397 541.810120,95.377953 545.149658,95.640442 
	C550.414734,96.054276 556.843750,94.302002 560.666992,96.757164 
	C564.276184,99.074913 565.189148,105.625488 567.232422,110.338303 
	C569.545532,115.673508 571.796631,121.035622 574.218689,126.741425 
M442.665039,141.041687 
	C440.890289,145.369370 439.115509,149.697052 437.250397,154.245041 
	C446.376465,154.245041 454.585999,154.245041 463.435120,154.245041 
	C459.064301,143.521622 454.899445,133.303604 450.378967,122.213028 
	C447.689728,128.749237 445.309357,134.534760 442.665039,141.041687 
M546.591553,154.571411 
	C552.119629,154.571411 557.647766,154.571411 563.839233,154.571411 
	C559.291565,143.454773 555.116089,133.247925 550.582214,122.165085 
	C546.039185,133.320175 541.856567,143.590195 537.384705,154.570602 
	C540.745300,154.570602 543.188232,154.570602 546.591553,154.571411 
z"/>
<path fill="#124496" opacity="1.000000" stroke="none" 
	d="
M253.537216,113.449081 
	C258.906830,121.691589 264.059875,129.643921 269.514648,138.061890 
	C277.861664,125.213524 286.093536,112.788948 294.018616,100.171646 
	C296.020630,96.984322 298.080078,95.539940 301.958649,95.779213 
	C308.051422,96.155075 314.184418,95.879021 320.541138,95.879021 
	C320.541138,129.309464 320.541138,162.229324 320.541138,195.563278 
	C313.555023,195.563278 306.520660,195.563278 298.985168,195.563278 
	C298.985168,174.627792 298.985168,153.605606 298.985168,132.583420 
	C298.619812,132.441055 298.254456,132.298691 297.889099,132.156326 
	C288.472687,145.847763 279.056244,159.539200 269.243042,173.807556 
	C259.551331,159.718475 250.243774,146.187805 240.229340,131.629547 
	C240.229340,153.608536 240.229340,174.519440 240.229340,195.699951 
	C232.702286,195.699951 225.796097,195.699951 218.583923,195.699951 
	C218.583923,162.562775 218.583923,129.513107 218.583923,95.890076 
	C225.989166,95.890076 233.264114,95.779053 240.528503,96.005905 
	C241.660141,96.041245 243.044647,97.412560 243.797379,98.516991 
	C247.075607,103.326889 250.163574,108.266449 253.537216,113.449081 
z"/>
<path fill="#104395" opacity="1.000000" stroke="none" 
	d="
M736.835938,97.813210 
	C750.734253,130.627106 764.483582,163.053787 778.613708,196.378311 
	C770.993591,196.378311 763.935730,196.496399 756.891907,196.235657 
	C755.963867,196.201294 754.798706,194.364120 754.271484,193.135330 
	C751.978394,187.790924 750.054504,182.281372 747.592896,177.020660 
	C746.957581,175.662857 744.870911,174.159348 743.426270,174.134125 
	C730.605164,173.910294 717.778564,174.003983 704.461365,174.003983 
	C702.037048,179.862961 699.237671,185.675797 697.256226,191.755234 
	C695.957092,195.741531 693.867432,196.747559 689.985901,196.513000 
	C684.541443,196.183945 679.062134,196.429886 672.827759,196.429886 
	C674.979004,191.357834 676.890747,186.851837 678.801453,182.345398 
	C690.478210,154.805084 702.221130,127.292435 713.740479,99.686432 
	C715.066040,96.509727 716.640869,95.397522 719.968201,95.631355 
	C724.113220,95.922661 728.301880,95.559303 732.455200,95.783775 
	C733.891174,95.861389 735.277771,96.852272 736.835938,97.813210 
M737.776550,151.523621 
	C733.872131,142.057129 729.967651,132.590637 725.679749,122.194481 
	C721.109314,133.435226 716.933228,143.706192 712.515442,154.571472 
	C721.053223,154.571472 728.675903,154.623154 736.294556,154.469910 
	C736.881714,154.458084 737.439880,153.003479 737.776550,151.523621 
z"/>
<path fill="#114395" opacity="1.000000" stroke="none" 
	d="
M333.156067,108.023842 
	C333.156067,104.039169 333.156067,100.549370 333.156067,97.253166 
	C333.622498,96.841133 333.869781,96.432373 334.113892,96.434242 
	C349.747620,96.553696 365.433319,95.960495 381.000854,97.051544 
	C399.092072,98.319473 411.205658,111.049133 412.054962,127.715851 
	C413.055634,147.352509 403.397186,161.089233 384.717285,164.777878 
	C376.328339,166.434387 367.516541,165.948227 358.896881,166.439224 
	C357.913757,166.495239 356.932404,166.582764 355.372345,166.698563 
	C355.372345,176.512634 355.372345,186.236176 355.372345,196.141785 
	C347.693756,196.141785 340.608459,196.141785 333.156036,196.141785 
	C333.156036,166.737991 333.156036,137.628357 333.156067,108.023842 
M372.157501,116.160660 
	C366.571136,116.160660 360.984772,116.160660 355.539368,116.160660 
	C355.539368,126.845284 355.539368,136.743591 355.539368,146.821762 
	C361.902100,146.821762 367.895660,147.063248 373.861908,146.762650 
	C381.915222,146.356918 387.206207,142.498856 389.200562,136.176025 
	C392.611023,125.363609 386.467133,117.751228 372.157501,116.160660 
z"/>
<path fill="#114395" opacity="1.000000" stroke="none" 
	d="
M71.635780,170.909256 
	C71.698486,172.711594 71.761124,174.023087 71.846939,175.819855 
	C87.214622,175.819855 102.441559,175.819855 118.221375,175.819855 
	C115.710320,182.802277 113.420303,189.170044 111.059319,195.735168 
	C90.688293,195.735168 70.453201,195.735168 49.890202,195.735168 
	C49.890202,162.581085 49.890202,129.400330 49.890202,96.049507 
	C57.060699,96.049507 64.021217,96.049507 71.635719,96.049507 
	C71.635719,120.929047 71.635719,145.673737 71.635780,170.909256 
z"/>
<path fill="#124596" opacity="1.000000" stroke="none" 
	d="
M608.208435,128.999939 
	C608.208435,118.017586 608.208435,107.535225 608.208435,96.631485 
	C615.465271,96.631485 622.503113,96.631485 630.133911,96.631485 
	C630.133911,122.963997 630.133911,149.329727 630.133911,176.119690 
	C644.948120,176.119690 659.187500,176.119690 674.232849,176.119690 
	C671.382996,182.826889 668.872437,188.917343 666.151611,194.912354 
	C665.805359,195.675247 664.361206,196.369003 663.424072,196.371094 
	C645.443848,196.411270 627.463379,196.345230 609.483032,196.278625 
	C609.191040,196.277542 608.900085,195.995789 608.208435,195.638016 
	C608.208435,173.728195 608.208435,151.614075 608.208435,128.999939 
z"/>
<path fill="#2E7DC0" opacity="1.000000" stroke="none" 
	d="
M124.092117,192.053345 
	C124.940948,179.594406 128.600540,168.128754 137.569656,159.175400 
	C140.457764,156.292374 144.765564,154.387527 148.768707,153.156616 
	C157.494110,150.473740 166.375687,148.199097 175.312897,146.328293 
	C188.386536,143.591599 197.693008,135.875214 205.032837,125.232956 
	C206.309464,123.381958 207.546860,121.503914 209.005966,119.335838 
	C212.803513,134.969177 206.212677,149.396515 191.922638,154.730255 
	C182.815918,158.129318 173.114532,160.440277 163.476746,161.799362 
	C146.749146,164.158264 133.881027,171.182144 127.001579,187.263107 
	C126.351227,188.783295 125.410233,190.179153 124.326584,191.831329 
	C124.048973,192.029922 124.092117,192.053345 124.092117,192.053345 
z"/>
<path fill="#99C225" opacity="1.000000" stroke="none" 
	d="
M160.245605,90.287766 
	C150.908340,92.237061 141.996964,94.280098 133.003799,95.856468 
	C120.526688,98.043510 111.652550,104.489693 106.981094,116.448090 
	C106.045601,118.842865 104.772476,121.105751 103.231415,123.246521 
	C104.014175,111.506409 106.165596,100.114639 114.842316,91.501076 
	C117.842613,88.522614 122.346672,86.631989 126.504166,85.337120 
	C134.579361,82.822044 142.830292,80.756187 151.126099,79.090134 
	C165.295517,76.244492 175.375427,68.005272 183.014282,56.211018 
	C183.955765,54.757393 184.929367,53.324558 186.139923,51.503185 
	C190.050385,71.500122 181.490540,84.199104 160.245605,90.287766 
z"/>
<path fill="#32ACE2" opacity="1.000000" stroke="none" 
	d="
M188.334747,99.334923 
	C192.069916,94.667862 195.553268,90.254349 198.988144,85.902260 
	C203.018082,95.546722 197.684219,111.312477 188.099274,117.489021 
	C179.056183,123.316391 168.637665,124.899643 158.370346,126.904076 
	C155.763321,127.413040 153.145981,127.913597 150.510574,128.225281 
	C134.236389,130.150085 123.203987,138.559341 118.006142,154.288544 
	C117.667984,155.311859 117.101822,156.259811 116.238464,157.077545 
	C116.972221,145.822296 118.940125,134.832169 126.688812,126.206543 
	C129.610733,122.953941 134.085190,120.494370 138.320709,119.146553 
	C147.638824,116.181358 157.235733,114.072693 166.756287,111.769173 
	C175.068832,109.757935 182.222855,105.835495 188.334747,99.334923 
z"/>
<path fill="#154797" opacity="1.000000" stroke="none" 
	d="
M566.685181,90.652176 
	C562.589111,90.652328 558.948303,90.652328 555.017700,90.652328 
	C555.017700,85.355438 555.017700,80.425415 555.017700,75.253220 
	C560.351685,75.253220 565.619995,75.253220 571.442505,75.253220 
	C571.442505,79.581459 571.425354,83.875343 571.447998,88.169014 
	C571.465881,91.559425 568.916321,90.416641 566.685181,90.652176 
z"/>
<path fill="#1B4B9A" opacity="1.000000" stroke="none" 
	d="
M728.854980,85.841713 
	C728.854980,82.071823 728.854980,78.780617 728.854980,75.251976 
	C734.519470,75.251976 739.766663,75.251976 745.300537,75.251976 
	C745.300537,80.281128 745.300537,85.185432 745.300537,90.382828 
	C739.969116,90.382828 734.877075,90.382828 729.222839,90.382828 
	C729.107788,89.111832 728.981384,87.716110 728.854980,85.841713 
z"/>
<path fill="#1B4B9A" opacity="1.000000" stroke="none" 
	d="
M704.328857,86.672035 
	C704.328796,82.618782 704.328796,79.021187 704.328796,75.219803 
	C710.100342,75.219803 715.320862,75.219803 720.821655,75.219803 
	C720.821655,80.253906 720.821655,85.142662 720.821655,90.653427 
	C716.064697,90.653427 711.303101,90.820404 706.575439,90.494919 
	C705.753235,90.438324 705.074158,88.302933 704.328857,86.672035 
z"/>
<path fill="#194A99" opacity="1.000000" stroke="none" 
	d="
M539.938049,90.669060 
	C536.522888,90.669357 533.583191,90.669357 530.428467,90.669357 
	C530.428467,85.309784 530.428467,80.559181 530.428467,75.406219 
	C535.770081,75.406219 541.117676,75.406219 546.747314,75.406219 
	C546.747314,80.250458 546.747314,85.147720 546.747314,90.668762 
	C544.619324,90.668762 542.516418,90.668762 539.938049,90.669060 
z"/>
<path fill="#1B4B9A" opacity="1.000000" stroke="none" 
	d="
M454.497528,76.492065 
	C459.860168,75.543259 465.161865,75.047035 470.831848,74.516327 
	C470.831848,80.223976 470.831848,85.131393 470.831848,90.362122 
	C465.575165,90.362122 460.332214,90.362122 454.436584,90.362122 
	C454.436584,85.822006 454.436584,81.383324 454.497528,76.492065 
z"/>
<path fill="#184999" opacity="1.000000" stroke="none" 
	d="
M441.858154,75.008514 
	C443.643951,75.008614 444.951019,75.008614 446.585693,75.008614 
	C446.585693,80.207474 446.585693,85.100052 446.585693,90.333794 
	C441.188904,90.333794 435.808319,90.333794 430.216492,90.333794 
	C430.216492,85.331902 430.216492,80.551651 430.216492,75.008408 
	C433.896423,75.008408 437.637939,75.008408 441.858154,75.008514 
z"/>
<path fill="#99C225" opacity="1.000000" stroke="none" 
	d="
M102.481522,125.485733 
	C102.472130,125.513176 102.490921,125.458282 102.481522,125.485733 
z"/>
<path fill="#2E7DC0" opacity="1.000000" stroke="none" 
	d="
M124.037056,192.008942 
	C124.025139,191.987946 123.789162,192.323883 123.789162,192.323883 
	C123.789162,192.323883 123.877602,192.146408 123.984863,192.099884 
	C124.092117,192.053345 124.048973,192.029922 124.037056,192.008942 
z"/>
<path fill="#F3F6FA" opacity="1.000000" stroke="none" 
	d="
M442.796997,140.680984 
	C445.309357,134.534760 447.689728,128.749237 450.378967,122.213028 
	C454.899445,133.303604 459.064301,143.521622 463.435120,154.245041 
	C454.585999,154.245041 446.376465,154.245041 437.250397,154.245041 
	C439.115509,149.697052 440.890289,145.369370 442.796997,140.680984 
z"/>
<path fill="#F4F6FA" opacity="1.000000" stroke="none" 
	d="
M546.111389,154.571014 
	C543.188232,154.570602 540.745300,154.570602 537.384705,154.570602 
	C541.856567,143.590195 546.039185,133.320175 550.582214,122.165085 
	C555.116089,133.247925 559.291565,143.454773 563.839233,154.571411 
	C557.647766,154.571411 552.119629,154.571411 546.111389,154.571014 
z"/>
<path fill="#F3F6F9" opacity="1.000000" stroke="none" 
	d="
M737.894043,151.871552 
	C737.439880,153.003479 736.881714,154.458084 736.294556,154.469910 
	C728.675903,154.623154 721.053223,154.571472 712.515442,154.571472 
	C716.933228,143.706192 721.109314,133.435226 725.679749,122.194481 
	C729.967651,132.590637 733.872131,142.057129 737.894043,151.871552 
z"/>
<path fill="#F9FBFC" opacity="1.000000" stroke="none" 
	d="
M372.613281,116.174713 
	C386.467133,117.751228 392.611023,125.363609 389.200562,136.176025 
	C387.206207,142.498856 381.915222,146.356918 373.861908,146.762650 
	C367.895660,147.063248 361.902100,146.821762 355.539368,146.821762 
	C355.539368,136.743591 355.539368,126.845284 355.539368,116.160660 
	C360.984772,116.160660 366.571136,116.160660 372.613281,116.174713 
z"/>
</svg>